<svg fill="#000" width="800" height="800" viewBox="144 144 512 512" xmlns="http://www.w3.org/2000/svg"><g><path d="m4e2 420.15c-49.977.0-90.688-40.707-90.688-90.688.0-49.977 40.707-90.688 90.688-90.688 49.977.0 90.688 40.707 90.688 90.688-.003906 49.977-40.711 90.688-90.688 90.688zm0-161.22c-38.895.0-70.535 31.641-70.535 70.535S361.106 4e2 4e2 4e2s70.535-31.641 70.535-70.535c-.003906-38.898-31.641-70.535-70.535-70.535z"/><path d="m530.99 561.22H269.01c-16.676.0-30.23-13.551-30.23-30.23v-10.078c0-38.895 31.641-70.535 70.535-70.535h181.37c38.895.0 70.535 31.641 70.535 70.535v10.078c0 16.676-13.555 30.23-30.23 30.23zm-221.68-90.688c-27.762.0-50.383 22.621-50.383 50.383v10.078c0 5.543 4.5352 10.078 10.078 10.078h261.98c5.543.0 10.078-4.5352 10.078-10.078v-10.078c0-27.762-22.621-50.383-50.383-50.383z"/></g></svg>